<?xml version="1.0" standalone="no"?>
<!DOCTYPE svg PUBLIC "-//W3C//DTD SVG 20010904//EN"
 "http://www.w3.org/TR/2001/REC-SVG-20010904/DTD/svg10.dtd">
<svg version="1.0" xmlns="http://www.w3.org/2000/svg"
 width="316.000000pt" height="412.000000pt" viewBox="0 0 316.000000 412.000000"
 preserveAspectRatio="xMidYMid meet">

<g transform="translate(0.000000,412.000000) scale(0.100000,-0.100000)"
fill="#000000" stroke="none">
<path d="M1450 4069 c-207 -109 -283 -168 -296 -227 -16 -72 -41 -137 -96
-250 -33 -67 -58 -125 -56 -128 3 -3 60 11 127 31 67 20 130 35 139 33 17 -3
-136 -108 -315 -216 -103 -62 -153 -104 -182 -152 -26 -44 -26 -59 0 -121 12
-27 19 -52 17 -55 -3 -3 -41 -13 -84 -24 -177 -42 -377 -129 -494 -216 -76
-55 -170 -149 -170 -168 0 -11 27 -15 113 -18 111 -5 113 -5 222 -58 60 -29
180 -81 265 -116 l155 -63 -3 -53 c-4 -61 -40 -207 -72 -291 -12 -32 -54 -106
-92 -165 -39 -59 -86 -138 -103 -177 -83 -181 -87 -356 -12 -499 32 -59 160
-206 171 -195 3 3 -1 23 -10 45 -11 24 -19 77 -21 139 -4 90 -2 104 19 145 36
68 44 61 46 -37 2 -113 31 -227 76 -298 20 -30 69 -90 111 -133 133 -140 186
-257 187 -415 0 -58 4 -87 12 -87 31 1 140 111 175 178 6 12 15 22 19 22 4 0
12 -31 18 -68 35 -221 183 -342 458 -376 55 -7 55 -7 22 82 -41 111 -28 249
32 352 35 58 159 190 180 190 6 0 20 -15 31 -34 52 -83 158 -157 247 -172 65
-10 207 27 165 43 -29 11 -93 78 -114 117 -27 53 -29 179 -2 246 10 28 19 85
22 147 3 57 7 103 10 103 2 0 23 -18 46 -40 69 -67 137 -94 242 -99 l90 -3
-58 61 c-94 99 -97 111 -95 373 2 218 1 225 -25 303 -14 44 -56 129 -92 190
-85 143 -99 187 -100 305 l0 94 115 41 c227 81 392 172 513 284 64 59 120 137
111 153 -4 6 -34 7 -73 3 -95 -9 -170 7 -361 80 -91 34 -198 72 -239 83 -40
12 -76 24 -79 27 -3 3 4 25 16 49 27 53 28 91 3 131 -19 33 -136 116 -286 205
-103 61 -199 134 -244 185 -23 27 -31 45 -31 74 0 59 12 131 21 131 5 0 9 -6
9 -12 0 -7 11 -36 24 -64 18 -40 39 -62 97 -105 133 -97 193 -139 200 -139 5
0 -10 39 -33 88 -22 48 -69 152 -104 232 -46 105 -72 153 -96 173 -46 40 -336
187 -367 187 -14 0 -69 -23 -121 -51z m95 -1872 c115 -3 170 2 305 24 92 16
179 33 194 39 15 5 32 8 37 4 10 -6 12 -126 3 -173 -5 -22 -20 -42 -49 -64
-54 -40 -75 -75 -75 -121 0 -27 -8 -45 -33 -72 l-33 -36 -39 53 c-53 70 -80
88 -142 96 -60 7 -59 17 3 45 54 23 58 51 14 93 l-30 29 0 -36 c0 -39 -14 -55
-78 -87 l-43 -22 -44 21 c-54 26 -67 41 -74 88 l-6 36 -33 -34 c-44 -48 -41
-64 17 -89 28 -11 52 -25 55 -30 3 -4 -17 -11 -45 -14 -60 -7 -105 -38 -149
-102 -17 -25 -35 -45 -40 -45 -5 0 -20 15 -34 33 -19 25 -26 46 -26 78 0 40
-4 48 -62 103 l-63 59 -4 84 c-1 46 -1 89 2 96 4 11 39 7 169 -20 131 -27 190
-34 303 -36z m130 -361 c50 -10 64 -17 82 -45 22 -32 46 -101 39 -109 -2 -2
-24 11 -49 29 -24 17 -73 39 -108 49 -60 16 -66 16 -120 0 -31 -10 -78 -32
-104 -50 -25 -17 -49 -30 -52 -27 -9 9 18 80 44 115 16 22 33 32 51 33 15 0
45 7 67 14 22 7 51 11 65 9 14 -3 52 -11 85 -18z"/>
</g>
</svg>
